<svg width="157" height="66" viewBox="0 0 157 66" fill="none" xmlns="http://www.w3.org/2000/svg">
<path d="M72.2568 30.1622V44.3342H67.6609V42.0363C67.0043 43.0211 66.2677 43.7337 65.451 44.1981C64.6343 44.6545 63.6655 44.8867 62.5685 44.8867C60.6789 44.8867 59.1656 44.1981 58.0287 42.8209C56.8997 41.4438 56.3312 39.5862 56.3312 37.2722C56.3312 34.9582 56.9237 33.1247 58.1087 31.7555C59.2937 30.3944 60.8791 29.7138 62.8888 29.7138C63.9537 29.7138 64.8745 29.946 65.6511 30.4024C66.4198 30.8588 67.0844 31.5553 67.6368 32.5082V30.1782H72.2648L72.2568 30.1622ZM67.853 37.2322C67.853 36.1272 67.5568 35.2545 66.9723 34.6059C66.3798 33.9574 65.5791 33.6371 64.5542 33.6371C63.5293 33.6371 62.7367 33.9574 62.1522 34.5979C61.5677 35.2385 61.2794 36.1192 61.2794 37.2242C61.2794 38.3291 61.5677 39.2019 62.1602 39.8344C62.7527 40.4749 63.5534 40.7872 64.5622 40.7872C65.5711 40.7872 66.3878 40.4749 66.9803 39.8344C67.5728 39.1938 67.861 38.3291 67.861 37.2242L67.853 37.2322ZM44.2329 44.3342V30.1622H48.9489V33.501C49.4374 32.276 50.1019 31.3712 50.9426 30.7627C51.7833 30.1542 52.8082 29.8499 54.0012 29.8499C54.2014 29.8499 54.4016 29.8499 54.6017 29.8659C54.8019 29.8819 55.0021 29.9059 55.2103 29.93L54.7218 34.4698C54.4256 34.3657 54.1293 34.2937 53.8411 34.2456C53.5529 34.2056 53.2726 34.1816 53.0004 34.1816C51.7914 34.1816 50.8546 34.5579 50.19 35.2945C49.5334 36.0392 49.2052 37.0881 49.2052 38.4572V44.3262H44.2329V44.3342ZM34.8329 44.3342V33.7012H32.7031V30.1622H34.8329V25.9346H39.7491V30.1622H41.8789V33.7012H39.7491V44.3342H34.8329Z" fill="white"/>
<path d="M143.179 63.8638L146.982 55.833L141.53 44.3752H146.822L148.712 49.2594C148.872 49.6677 149.008 50.0521 149.112 50.4044C149.216 50.7567 149.296 51.085 149.352 51.3892C149.408 51.0609 149.48 50.7327 149.584 50.3884C149.689 50.0441 149.825 49.6677 149.985 49.2594L151.898 44.3752H156.999L148.504 63.8638H143.195H143.179ZM135.829 63.8398V56.4655C135.829 55.2965 135.685 54.4878 135.396 54.0475C135.1 53.5991 134.604 53.3749 133.883 53.3749C132.994 53.3749 132.37 53.6872 132.018 54.3037C131.673 54.9282 131.497 56.1933 131.497 58.1149V63.8398H126.893V56.4655C126.893 55.2805 126.749 54.4638 126.461 54.0315C126.181 53.5911 125.676 53.3749 124.964 53.3749C124.075 53.3749 123.45 53.6792 123.09 54.2957C122.73 54.9042 122.553 56.1853 122.553 58.1149V63.8398H117.926V50.3323H122.61V52.6783C123.17 51.7255 123.819 51.0209 124.555 50.5645C125.292 50.1081 126.157 49.8919 127.157 49.8919C128.254 49.8919 129.151 50.1001 129.856 50.5245C130.552 50.9488 131.057 51.5894 131.361 52.4381C131.889 51.5814 132.522 50.9408 133.283 50.5165C134.043 50.1001 134.94 49.8839 135.957 49.8839C136.774 49.8839 137.486 50.02 138.087 50.2923C138.695 50.5645 139.208 50.9729 139.624 51.5173C139.952 51.9417 140.184 52.4461 140.329 53.0146C140.465 53.5831 140.537 54.5119 140.537 55.793V63.8238H135.821L135.829 63.8398ZM115.195 58.0269H104.914C104.922 59.0677 105.195 59.8684 105.715 60.4369C106.244 61.0054 106.988 61.2856 107.957 61.2856C108.686 61.2856 109.294 61.1495 109.791 60.8773C110.287 60.605 110.663 60.2047 110.92 59.6682L114.507 61.1095C114.074 62.1504 113.322 62.943 112.233 63.5035C111.144 64.064 109.807 64.3522 108.229 64.3522C105.875 64.3522 103.978 63.6957 102.56 62.3906C101.135 61.0774 100.423 59.356 100.423 57.2182C100.423 55.0803 101.135 53.3589 102.552 51.9737C103.978 50.5805 105.779 49.8839 107.949 49.8839C110.119 49.8839 111.952 50.5885 113.25 51.9977C114.539 53.4069 115.187 55.3446 115.187 57.7947V58.0269H115.195ZM110.511 55.3446C110.423 54.5759 110.127 53.9594 109.63 53.495C109.134 53.0306 108.526 52.7984 107.797 52.7984C107.02 52.7984 106.396 53.0066 105.939 53.4309C105.483 53.8553 105.179 54.4959 105.019 55.3446H110.503H110.511ZM79.5009 50.3243V63.8318H75.1132V61.6379C74.4886 62.5747 73.792 63.2633 73.0074 63.6957C72.2227 64.128 71.3099 64.3522 70.261 64.3522C68.4595 64.3522 67.0183 63.6957 65.9374 62.3826C64.8564 61.0694 64.32 59.2999 64.32 57.0901C64.32 54.8802 64.8885 53.1347 66.0174 51.8296C67.1464 50.5325 68.6597 49.8839 70.5733 49.8839C71.5902 49.8839 72.4709 50.1001 73.2075 50.5405C73.9442 50.9729 74.5767 51.6374 75.0971 52.5422V50.3243H79.5089H79.5009ZM75.3053 57.066C75.3053 56.0091 75.0251 55.1764 74.4646 54.5599C73.9041 53.9434 73.1355 53.6391 72.1586 53.6391C71.1818 53.6391 70.4212 53.9434 69.8687 54.5599C69.3082 55.1684 69.036 56.0091 69.036 57.066C69.036 58.1229 69.3162 58.9476 69.8767 59.5562C70.4372 60.1647 71.1978 60.4689 72.1666 60.4689C73.1355 60.4689 73.9041 60.1647 74.4726 59.5562C75.0331 58.9476 75.3133 58.1149 75.3133 57.066H75.3053ZM62.0701 54.7681C61.6057 54.3597 61.1573 54.0635 60.7329 53.8713C60.3006 53.6872 59.8522 53.5911 59.3798 53.5911C58.435 53.5911 57.6823 53.9033 57.1219 54.5279C56.5614 55.1524 56.2891 56.0011 56.2891 57.074C56.2891 58.147 56.5854 58.9316 57.1619 59.5481C57.7384 60.1647 58.515 60.4689 59.4999 60.4689C59.9803 60.4689 60.4367 60.3729 60.861 60.1807C61.2854 59.9885 61.6857 59.6923 62.0701 59.2919V63.4234C61.5016 63.7437 60.9251 63.9839 60.3566 64.128C59.7881 64.2802 59.1956 64.3602 58.5871 64.3602C56.5053 64.3602 54.8239 63.6957 53.5348 62.3585C52.2457 61.0214 51.5972 59.2679 51.5972 57.0901C51.5972 54.9122 52.2537 53.2468 53.5668 51.9016C54.888 50.5565 56.5694 49.8839 58.6351 49.8839C59.3237 49.8839 59.9402 49.956 60.4927 50.0841C61.0452 50.2202 61.5736 50.4284 62.0621 50.7246V54.7601L62.0701 54.7681ZM48.7708 50.3243V63.8318H44.383V61.6379C43.7585 62.5747 43.0619 63.2633 42.2772 63.6957C41.4926 64.128 40.5798 64.3522 39.5309 64.3522C37.7294 64.3522 36.2881 63.6957 35.2072 62.3826C34.1263 61.0694 33.5898 59.2999 33.5898 57.0901C33.5898 54.8802 34.1583 53.1347 35.2873 51.8296C36.4162 50.5325 37.9295 49.8839 39.8432 49.8839C40.86 49.8839 41.7408 50.1001 42.4774 50.5405C43.214 50.9729 43.8466 51.6374 44.367 52.5422V50.3243H48.7788H48.7708ZM44.5752 57.066C44.5752 56.0091 44.2949 55.1764 43.7345 54.5599C43.174 53.9434 42.4053 53.6391 41.4285 53.6391C40.4517 53.6391 39.691 53.9434 39.1386 54.5599C38.5781 55.1684 38.3059 56.0091 38.3059 57.066C38.3059 58.1229 38.5861 58.9476 39.1466 59.5562C39.707 60.1647 40.4677 60.4689 41.4365 60.4689C42.4053 60.4689 43.174 60.1647 43.7425 59.5562C44.303 58.9476 44.5832 58.1149 44.5832 57.066H44.5752Z" fill="white"/>
<path d="M97.6541 30.1631H93.0742V44.3351H97.6541V30.1631Z" fill="#C00000"/>
<path d="M97.6497 43.0915V63.8371H93.2619V61.6433C92.6534 62.556 91.9728 63.2366 91.2122 63.677C90.4515 64.1254 89.6108 64.3496 88.69 64.3496C86.7924 64.3496 85.2791 63.693 84.1582 62.3799C83.0372 61.0668 82.4688 59.3053 82.4688 57.0794C82.4688 54.8535 83.0292 53.1881 84.1502 51.867C85.2711 50.5458 86.7284 49.8813 88.5299 49.8813C89.6749 49.8813 90.6037 50.0895 91.3243 50.4978C92.0449 50.9061 92.6774 51.5947 93.2459 52.5636C93.1899 52.2433 93.1578 51.875 93.1258 51.4746C93.1018 51.0663 93.0858 50.6259 93.0858 50.1535V43.0835H97.6657L97.6497 43.0915ZM93.4141 57.0954C93.4141 56.0465 93.1338 55.2138 92.5813 54.6053C92.0289 53.9968 91.2682 53.6925 90.3074 53.6925C89.3466 53.6925 88.5859 53.9968 88.0335 54.6053C87.481 55.2138 87.2088 56.0465 87.2088 57.0954C87.2088 58.1443 87.481 58.985 88.0335 59.5855C88.5779 60.186 89.3386 60.4903 90.3154 60.4903C91.2922 60.4903 92.0369 60.186 92.5894 59.5775C93.1498 58.969 93.4221 58.1363 93.4221 57.0874L93.4141 57.0954Z" fill="#C00000"/>
<path d="M135.442 24.0125V38.1605C135.442 40.3063 134.785 41.8837 133.48 42.9166C132.175 43.9414 130.157 44.4539 127.427 44.4539C125.217 44.4539 123.487 44.0455 122.23 43.2208C120.973 42.4041 120.317 41.2351 120.237 39.7379H125.409C125.489 40.1782 125.729 40.5225 126.146 40.7707C126.562 41.0189 127.115 41.1471 127.795 41.1471C128.876 41.1471 129.613 40.8908 130.021 40.3704C130.429 39.85 130.638 38.761 130.638 37.0956V35.7985C130.117 36.6873 129.445 37.3518 128.628 37.7922C127.811 38.2246 126.842 38.4408 125.721 38.4408C123.848 38.4408 122.351 37.7682 121.214 36.407C120.085 35.0539 119.516 33.2523 119.516 30.9944C119.516 28.7365 120.109 26.911 121.294 25.5658C122.479 24.2207 124.064 23.5481 126.074 23.5481C127.131 23.5481 128.043 23.7643 128.82 24.2127C129.589 24.653 130.253 25.3416 130.822 26.2784V24.0045H135.45L135.442 24.0125ZM131.038 31.0505C131.038 29.9615 130.742 29.0968 130.157 28.4803C129.573 27.8558 128.764 27.5435 127.739 27.5435C126.714 27.5435 125.882 27.8558 125.289 28.4803C124.697 29.1048 124.4 29.9615 124.4 31.0505C124.4 32.1394 124.697 32.9881 125.289 33.6207C125.882 34.2452 126.698 34.5575 127.739 34.5575C128.78 34.5575 129.565 34.2452 130.157 33.6207C130.742 32.9961 131.038 32.1394 131.038 31.0505ZM101.469 44.3338V30.1617H106.049V33.0362C106.713 31.8832 107.474 31.0345 108.347 30.498C109.211 29.9696 110.26 29.6973 111.469 29.6973C112.39 29.6973 113.207 29.8495 113.919 30.1377C114.632 30.434 115.216 30.8583 115.665 31.4108C116.041 31.8832 116.305 32.4677 116.466 33.1483C116.626 33.8368 116.706 34.8537 116.706 36.2069V44.3258H111.701V36.7353C111.701 35.5983 111.517 34.7816 111.149 34.2612C110.781 33.7488 110.188 33.4926 109.379 33.4926C108.339 33.4926 107.586 33.8769 107.106 34.6455C106.633 35.4142 106.393 36.6552 106.393 38.3847V44.3338H101.477H101.469Z" fill="white"/>
<path d="M95.7907 28.7527H94.918V65.1276H95.7907V28.7527Z" fill="#C00000"/>
<path d="M89.2402 0V1.81055H91.3096V22.7891H91.2852V44.3408H89.2402V45.6953H88.3672V44.3408H86.6807V42.043C86.0402 42.9957 85.3278 43.7083 84.5352 44.1807C83.7425 44.6531 82.8616 44.8936 81.8848 44.8936C79.8912 44.8935 78.3059 44.2051 77.1289 42.8281C75.952 41.451 75.3594 39.6013 75.3594 37.2715C75.3594 34.9415 75.9521 33.1879 77.1211 31.8027C78.2981 30.4095 79.8194 29.7207 81.709 29.7207C82.9099 29.7207 83.8871 29.9368 84.6396 30.3691C85.3922 30.8015 86.065 31.5225 86.6494 32.5312C86.5934 32.195 86.5525 31.8101 86.5205 31.3857C86.4885 30.9615 86.4805 30.4972 86.4805 30.001V22.5869H86.4893V1.81055H88.3672V0H89.2402ZM83.582 33.7002C82.5733 33.7003 81.7727 34.0128 81.1963 34.6533C80.62 35.2938 80.3321 36.1581 80.332 37.2627C80.332 38.3675 80.62 39.2483 81.1963 39.8809C81.7728 40.5134 82.5659 40.8262 83.5908 40.8262C84.6155 40.8261 85.4002 40.5135 85.9766 39.873C86.5609 39.2325 86.8574 38.3675 86.8574 37.2627H86.8496C86.8495 36.1582 86.5609 35.2857 85.9688 34.6533C85.3923 34.0128 84.5909 33.7002 83.582 33.7002ZM95.3516 22.0996C96.1122 22.0996 96.7929 22.3644 97.3213 22.8848C97.8497 23.4051 98.1142 24.0535 98.1143 24.8301C98.1143 25.6066 97.8419 26.2632 97.3057 26.8076C96.7692 27.3521 96.1202 27.625 95.3516 27.625C94.583 27.6249 93.9505 27.3444 93.4141 26.792C92.8697 26.2395 92.5977 25.5907 92.5977 24.8301C92.5977 24.0696 92.8699 23.4288 93.4062 22.9004C93.9426 22.3721 94.5911 22.0997 95.3516 22.0996ZM39.3291 8.68066C40.386 8.68066 41.3714 8.85668 42.2842 9.20898C43.1969 9.56128 44.0138 10.0898 44.7344 10.7783C45.479 11.4909 46.0387 12.2921 46.415 13.1729C46.7913 14.0536 46.9844 14.9986 46.9844 15.9834L46.9922 15.9912C46.9922 16.9759 46.7993 17.9123 46.415 18.793C46.0307 19.6817 45.4788 20.4751 44.7422 21.1797C44.0056 21.8842 43.1725 22.42 42.2598 22.7803C41.3391 23.1405 40.3706 23.3251 39.3379 23.3252C38.3051 23.3252 37.3121 23.1405 36.3994 22.7803C35.4786 22.42 34.661 21.8843 33.9404 21.1797C33.2118 20.4911 32.6675 19.7061 32.2832 18.8174C31.9069 17.9287 31.7149 16.9839 31.7148 15.9912C31.7148 14.9985 31.9072 14.0537 32.2754 13.165C32.6517 12.2843 33.196 11.4909 33.9326 10.7783C34.6452 10.0817 35.4542 9.56128 36.375 9.20898C37.2876 8.85676 38.2724 8.6807 39.3291 8.68066ZM54.3906 8.95312C54.3906 9.52955 54.3824 10.0102 54.3584 10.3945C54.3344 10.7787 54.3019 11.1153 54.2539 11.3955C54.8143 10.4188 55.4551 9.72204 56.1836 9.30566C56.9122 8.88931 57.8576 8.68066 59.0186 8.68066C60.8359 8.68076 62.3174 9.35338 63.4463 10.6904C64.5751 12.0275 65.1435 13.7891 65.1436 15.9668C65.1436 18.1446 64.5745 20.0021 63.4375 21.3232C62.3006 22.6522 60.7718 23.3173 58.8584 23.3174C57.9216 23.3174 57.0724 23.0931 56.3037 22.6367C55.5352 22.1804 54.8467 21.4997 54.2383 20.5791V22.7969H49.8027V1.81055H54.3906V8.95312ZM73.6865 8.66504C74.7193 8.66504 75.6001 8.88898 76.3447 9.32129C77.0893 9.76164 77.7224 10.434 78.2588 11.3467V9.10547H82.7188V22.7803H78.2822V20.5625C77.6497 21.5073 76.945 22.2042 76.1523 22.6445C75.3597 23.0848 74.4308 23.3008 73.374 23.3008C71.5487 23.3007 70.0918 22.6365 69.0029 21.3076C67.914 19.9785 67.3692 18.193 67.3691 15.9512C67.3691 13.7093 67.9461 11.9479 69.083 10.6348C70.2199 9.32168 71.7569 8.66507 73.6865 8.66504ZM10.6006 2.52344C12.5382 2.52344 14.2598 2.90817 15.749 3.67676C17.2383 4.44541 18.4956 5.58242 19.5205 7.0957L14.8369 9.33691C14.2765 8.56839 13.6437 8.00013 12.9473 7.63184C12.2427 7.25552 11.4655 7.07129 10.5928 7.07129C8.97551 7.07134 7.70218 7.60761 6.77344 8.68848C5.84467 9.76937 5.38088 11.2349 5.38086 13.1084C5.38086 14.982 5.84466 16.4796 6.77344 17.5605C7.70218 18.6494 8.97551 19.1855 10.5928 19.1855C11.9619 19.1855 13.1075 18.8493 14.0283 18.1768C14.9489 17.5042 15.4856 16.615 15.6377 15.4941H10.2646L10.249 15.5029V11.3467H20.8662C20.8742 11.4827 20.8816 11.635 20.8896 11.7949V12.5078C20.8896 15.9187 19.9929 18.561 18.1914 20.4346C16.3979 22.3162 13.8596 23.2529 10.5928 23.2529C8.99157 23.2529 7.55854 23.0128 6.30957 22.5244C5.06054 22.044 3.94771 21.3073 2.96289 20.3145C2.02614 19.3697 1.2968 18.2492 0.776367 16.9521C0.255978 15.6552 5.25531e-05 14.3018 0 12.8848C0 11.4676 0.256313 10.0416 0.760742 8.80859C1.26517 7.56765 2.01778 6.45469 3.01855 5.46191C4.01136 4.49314 5.15648 3.76497 6.4375 3.26855C7.72647 2.77218 9.11148 2.52348 10.6006 2.52344ZM28.8086 22.7891H23.9883V1.81055H28.8086V22.7891ZM57.1924 12.5322C56.2237 12.5323 55.447 12.8367 54.8945 13.4531C54.3422 14.0696 54.0616 14.9101 54.0615 15.9668C54.0615 17.0317 54.3421 17.8729 54.8945 18.4814C55.4469 19.0978 56.2157 19.4023 57.1924 19.4023C58.1692 19.4023 58.9464 19.0978 59.5068 18.4893C60.0673 17.8807 60.3477 17.0397 60.3477 15.9668C60.3476 14.8942 60.0672 14.0616 59.499 13.4531C58.9385 12.8366 58.1612 12.5322 57.1924 12.5322ZM75.2881 12.4844C74.3032 12.4844 73.5343 12.7966 72.9658 13.4131C72.4055 14.0296 72.1172 14.8784 72.1172 15.9512C72.1172 17.0238 72.3975 17.8564 72.9658 18.4648C73.5343 19.0814 74.3034 19.3857 75.2803 19.3857C76.257 19.3857 77.0419 19.0813 77.6104 18.4648C78.1786 17.8484 78.4589 17.0078 78.459 15.9512L78.4668 15.9434C78.4668 14.8786 78.1865 14.0376 77.6182 13.4131C77.0497 12.7886 76.2729 12.4844 75.2881 12.4844ZM39.3457 12.7002C38.473 12.7002 37.7683 12.9966 37.2559 13.5811C36.7514 14.1656 36.4951 14.9743 36.4951 15.9912C36.4952 17.008 36.7515 17.8169 37.2559 18.4014C37.7603 18.9857 38.4649 19.2734 39.3535 19.2734C40.2422 19.2734 40.9309 18.9858 41.4434 18.4014C41.9478 17.8169 42.2041 17.016 42.2041 15.9912H42.1963C42.1963 14.9743 41.9392 14.1736 41.4268 13.5811C40.9144 12.9967 40.2183 12.7003 39.3457 12.7002Z" fill="#82E95F"/>
</svg>
