<svg width="857" height="207" viewBox="0 0 857 207" fill="none" xmlns="http://www.w3.org/2000/svg">
<rect x="427" width="1" height="92" fill="url(#paint0_linear_326_1711)"/>
<rect width="841.517" height="1.21749" transform="translate(7 91.5244)" fill="white" fill-opacity="0.25"/>
<rect width="1" height="100" transform="translate(7 91.5244)" fill="white" fill-opacity="0.25"/>
<mask id="path-2-inside-1_326_1711" fill="white">
<path d="M0 199.024C0 194.882 3.35786 191.524 7.5 191.524C11.6421 191.524 15 194.882 15 199.024C15 203.167 11.6421 206.524 7.5 206.524C3.35786 206.524 0 203.167 0 199.024Z"/>
</mask>
<path d="M7.5 206.524V205.524C3.91015 205.524 1 202.614 1 199.024H0H-1C-1 203.719 2.80558 207.524 7.5 207.524V206.524ZM15 199.024H14C14 202.614 11.0899 205.524 7.5 205.524V206.524V207.524C12.1944 207.524 16 203.719 16 199.024H15ZM7.5 191.524V192.524C11.0899 192.524 14 195.435 14 199.024H15H16C16 194.33 12.1944 190.524 7.5 190.524V191.524ZM7.5 191.524V190.524C2.80558 190.524 -1 194.33 -1 199.024H0H1C1 195.435 3.91015 192.524 7.5 192.524V191.524Z" fill="white" fill-opacity="0.25" mask="url(#path-2-inside-1_326_1711)"/>
<rect x="6" y="197.524" width="3" height="3" rx="1.5" fill="white" fill-opacity="0.25"/>
<rect width="1" height="100" transform="translate(848.18 91.5244)" fill="url(#paint1_linear_326_1711)"/>
<mask id="path-5-inside-2_326_1711" fill="white">
<path d="M841.18 199.024C841.18 194.882 844.538 191.524 848.68 191.524C852.822 191.524 856.18 194.882 856.18 199.024C856.18 203.167 852.822 206.524 848.68 206.524C844.538 206.524 841.18 203.167 841.18 199.024Z"/>
</mask>
<path d="M848.68 206.524V205.524C845.09 205.524 842.18 202.614 842.18 199.024H841.18H840.18C840.18 203.719 843.985 207.524 848.68 207.524V206.524ZM856.18 199.024H855.18C855.18 202.614 852.27 205.524 848.68 205.524V206.524V207.524C853.374 207.524 857.18 203.719 857.18 199.024H856.18ZM848.68 191.524V192.524C852.27 192.524 855.18 195.435 855.18 199.024H856.18H857.18C857.18 194.33 853.374 190.524 848.68 190.524V191.524ZM848.68 191.524V190.524C843.985 190.524 840.18 194.33 840.18 199.024H841.18H842.18C842.18 195.435 845.09 192.524 848.68 192.524V191.524Z" fill="#23FF6C" mask="url(#path-5-inside-2_326_1711)"/>
<rect x="847.18" y="197.524" width="3" height="3" rx="1.5" fill="#00DC15"/>
<defs>
<linearGradient id="paint0_linear_326_1711" x1="427.5" y1="0" x2="427.5" y2="92" gradientUnits="userSpaceOnUse">
<stop stop-color="white" stop-opacity="0.05"/>
<stop offset="1" stop-color="white" stop-opacity="0.25"/>
</linearGradient>
<linearGradient id="paint1_linear_326_1711" x1="0.5" y1="0" x2="0.5" y2="100" gradientUnits="userSpaceOnUse">
<stop stop-color="white" stop-opacity="0.25"/>
<stop offset="1" stop-color="#23FF4B"/>
</linearGradient>
</defs>
</svg>
