<svg width="75" height="77" viewBox="0 0 75 77" fill="none" xmlns="http://www.w3.org/2000/svg">
<path d="M23.043 39.3325H51.0551V44.8002H23.043V39.3325Z" fill="#6CE942"/>
<path d="M2.24219 7.44189H8.86684V28.3839H2.24219V7.44189Z" fill="#6CE942"/>
<path d="M65.2305 7.44189H71.8551V28.3839H65.2305V7.44189Z" fill="#6CE942"/>
<path d="M26.6133 11.9092H32.6329V17.8587H26.6133V11.9092Z" fill="#6CE942"/>
<path d="M60.816 34.9161V0.909668H13.2852V34.9161H60.816ZM37.0516 28.3325H32.6352V22.2755H26.6156V28.3325H22.1991V7.49325H37.0516V28.3325ZM41.5004 28.3325V23.9161H44.4929V11.9097H41.5004V7.49325H51.9019V11.9097H48.9093V23.9162H51.9019V28.3327H41.5004V28.3325Z" fill="#6CE942"/>
<path d="M17.1953 76.2832H56.9026V49.2163H17.1953V76.2832ZM27.1941 60.5415H46.9038V64.958H27.1941V60.5415Z" fill="#6CE942"/>
<path d="M12.779 49.2163H11.6092C10.4823 49.2163 9.39361 49.3807 8.36252 49.6814C3.62221 51.0639 0.127929 55.3909 0 60.5415H12.779V49.2163Z" fill="#6CE942"/>
<path d="M2.58594 64.958H12.7794V76.2832H2.58594V64.958Z" fill="#6CE942"/>
<path d="M61.3203 49.2163V60.5415H74.0994C73.9715 55.3909 70.4772 51.0639 65.7367 49.6814C64.7057 49.3806 63.617 49.2163 62.4901 49.2163H61.3203Z" fill="#6CE942"/>
<path d="M61.3203 64.958H71.5137V76.2832H61.3203V64.958Z" fill="#6CE942"/>
</svg>
