<svg width="76" height="77" viewBox="0 0 76 77" fill="none" xmlns="http://www.w3.org/2000/svg">
<path d="M31.0622 76.2833V69.5114C26.1907 69.5114 22.2294 65.55 22.2294 60.6785C22.2294 55.8071 26.1907 51.8457 31.0622 51.8457V45.221H18.7186L19.7688 42.271C19.9371 41.803 20.0211 41.3093 20.0211 40.8046C20.0211 38.37 18.0393 36.3882 15.6047 36.3882C13.1701 36.3882 11.1883 38.37 11.1883 40.8046C11.1883 41.3093 11.2723 41.803 11.4406 42.271L12.4908 45.221H0C1.09572 61.7226 14.5607 75.1875 31.0622 76.2833Z" fill="#6CE942"/>
<path d="M15.6047 31.9717C20.4762 31.9717 24.4376 35.9331 24.4376 40.8046H31.0622V28.461L34.0122 29.5112C36.7316 30.4794 39.8929 28.2842 39.8951 25.3471C39.8929 22.4078 36.7336 20.1953 34.0122 21.183L31.0622 22.2332V10.0015C14.5607 11.0972 1.09572 24.303 0 40.8046H6.77186C6.77186 35.9331 10.7332 31.9717 15.6047 31.9717Z" fill="#6CE942"/>
<path d="M66.2844 45.2212H59.7717C59.7717 50.0927 55.8103 54.054 50.9388 54.054C46.0673 54.054 42.1059 50.0927 42.1059 45.2212H35.4813V57.5648L32.5313 56.5146C29.8012 55.5334 26.6462 57.7394 26.6484 60.6787C26.6462 63.618 29.8034 65.824 32.5313 64.8428L35.4813 63.7926V76.2834C51.9828 75.1877 65.1887 61.7227 66.2844 45.2212Z" fill="#6CE942"/>
<path d="M66.3955 18.7226V9.88974H57.5626C57.5626 5.01827 53.6012 0.909668 48.7298 0.909668C43.8583 0.909668 39.8969 5.01827 39.8969 9.88974H35.4805V16.5144C40.3519 16.5144 44.3133 20.4758 44.3133 25.3472C44.3133 30.2187 40.3519 34.1801 35.4805 34.1801V40.8047H47.8241L46.7739 43.7548C46.6056 44.2228 46.5215 44.7165 46.5215 45.2212C46.5215 47.6558 48.5033 49.6376 50.938 49.6376C53.3726 49.6376 55.3544 47.6558 55.3544 45.2212C55.3544 44.7165 55.2703 44.2228 55.1021 43.7548L54.0518 40.8047H66.3955V36.3883C71.2669 36.3883 75.3755 32.4269 75.3755 27.5555C75.3755 22.684 71.2669 18.7226 66.3955 18.7226Z" fill="#6CE942"/>
</svg>
