<svg width="77" height="77" viewBox="0 0 77 77" fill="none" xmlns="http://www.w3.org/2000/svg">
<path d="M75.1362 55.3885L72.7999 54.1708C75.1384 49.1293 76.3229 43.9033 76.3229 38.6065C76.3229 17.9759 59.4316 0.772461 38.6361 0.772461C17.7964 0.772461 0.949219 18.0201 0.949219 38.6065C0.949219 59.3387 17.9319 76.1462 38.6361 76.1462C39.855 76.1462 40.8443 75.1569 40.8443 73.938V69.5215C40.8443 68.302 39.8557 67.3133 38.6364 67.3133H38.6361C22.8002 67.3133 9.78208 54.4615 9.78208 38.6065C9.78208 22.7368 22.8105 9.60532 38.6361 9.60532C54.4454 9.60532 67.4901 22.7236 67.4901 38.6065C67.4901 42.4737 66.6376 46.3262 64.9558 50.0841L64.7538 49.979C63.5169 49.3348 61.9899 49.9903 61.6081 51.3375C60.5806 54.9631 59.2832 59.0196 58.0747 62.6054C57.5288 64.2252 58.9609 65.826 60.6311 65.468C63.9571 64.755 68.2497 65.0333 75.5175 59.0521C76.74 58.0459 76.5376 56.119 75.1362 55.3885Z" fill="#6CE942"/>
<path d="M38.6368 14.0215C25.1551 14.0215 14.1992 24.9461 14.1992 38.4591C14.1992 52.3813 25.4961 62.8966 38.6368 62.8966C44.8475 62.8966 50.9221 60.5441 55.5635 56.0835C56.17 54.1727 56.7957 52.122 57.3595 50.1331C57.9984 47.8808 59.7826 46.1672 61.9688 45.5563C62.5448 43.7448 62.8843 41.8874 62.9772 40.6496C64.3073 26.7471 53.3192 14.0215 38.6368 14.0215ZM49.0316 49.0011C48.1689 49.8623 46.7704 49.8637 45.9077 49.0011L37.0748 40.1682C36.6612 39.7531 36.4286 39.1922 36.4286 38.6063V25.357C36.4286 24.1381 37.4179 23.1488 38.6368 23.1488C39.8557 23.1488 40.845 24.1381 40.845 25.357V37.6921L49.0316 45.8772C49.8928 46.7399 49.8928 48.1384 49.0316 49.0011Z" fill="#6CE942"/>
</svg>
